# xmcd CD database file
#
# Track frame offsets:
#	150
#	29465
#	61659
#	84751
#	105656
#	133543
#	156801
#	176201
#	200340
#	229299
#
# Disc length: 3360 seconds
#
# Revision: 0
# Processed by: cddbd v1.5.2PL0 Copyright (c) Steve Scherf et al.
# Submitted via: CDex 1.70beta2
#
DISCID=7a0d1e0a
DTITLE=谷口英治 - Don't Be That Way!
DYEAR=2004
DGENRE=Jazz
TTITLE0=In The Mood
TTITLE1=Don't Be That Way
TTITLE2=Line For Lyons
TTITLE3=Petite Fleur
TTITLE4=I Mean You
TTITLE5=Grandfather's Clock
TTITLE6=As Time Goes Bye
TTITLE7=Bluesette
TTITLE8=Sweet Georgia Brown
TTITLE9=My Blue Heaven
EXTD=YEAR: 2004
EXTT0=
EXTT1=
EXTT2=
EXTT3=
EXTT4=
EXTT5=
EXTT6=
EXTT7=
EXTT8=
EXTT9=
PLAYORDER=
